<svg width="200" height="200" viewBox="0 0 200 200" fill="none" xmlns="http://www.w3.org/2000/svg">
<g clip-path="url(#clip0_4_991)">
<rect width="200" height="200" rx="100" transform="matrix(-1 0 0 1 200 0)" fill="#D8F999"/>
<path d="M121.333 125.856C121.413 132.079 126.523 136.793 136.667 139.856C124.445 148.745 112.222 155.856 100 155.856C87.778 155.856 75.5553 148.745 63.3333 139.856C73.4076 136.789 78.5187 132.212 78.6667 126.123C78.6667 125.037 78.5953 101.193 78.5493 90.7893C68.9947 78.4046 72.5047 63.8853 75.4987 64.2473C79.1693 64.6946 110.971 34.516 117.071 32.9686C123.171 31.4213 138.667 36.4166 141.333 50.3333C144 64.25 145.115 99.3286 135 113.333C132.122 117.319 127.521 118.867 121.333 118C121.325 120.913 121.333 125.856 121.333 125.856Z" fill="url(#paint0_linear_4_991)"/>
<path d="M121.333 118C106.667 116.333 97.3333 110 97.3333 110C97.3333 110 105.333 123.333 121.333 126V118Z" fill="#DB6F3D"/>
<path d="M73.6667 91C69.0733 79.9533 50.6667 57.4553 66.5333 43.4553C71.8667 17.4553 101.333 20.3333 121 26.3333C134.218 30.366 144.2 38.3333 146.333 32.3333C159.667 43.4553 152.989 54.3333 144.2 57.4553C136.223 60.2886 122.733 63.122 99.796 60.4553C95.6987 59.9786 96.5567 72.5273 94.3673 73.884C91.0827 75.9193 88.5333 63.122 79.528 66.9646C70.5227 70.8073 75.8667 88.6246 85.5333 88.6246C88.8667 88.6246 90.5333 97.7893 81.5333 102.123C75 105.333 76.6513 98.178 73.6667 91Z" fill="white"/>
<path d="M30 160.205C23.6533 173.11 20 202.872 20 202.872H180C180 202.872 176.345 173.107 170 160.205C163.655 147.304 126.6 135.338 126.6 135.338C119.458 150 80.2613 150 73.4193 135.333C73.4193 135.333 36.3467 147.301 30 160.205Z" fill="url(#paint1_linear_4_991)"/>
<mask id="mask0_4_991" style="mask-type:alpha" maskUnits="userSpaceOnUse" x="20" y="135" width="160" height="68">
<path d="M30 160.205C23.6533 173.11 20 202.872 20 202.872H180C180 202.872 176.345 173.107 170 160.205C163.655 147.304 126.6 135.338 126.6 135.338C119.458 150 80.2613 150 73.4193 135.333C73.4193 135.333 36.3467 147.301 30 160.205Z" fill="url(#paint2_linear_4_991)"/>
</mask>
<g mask="url(#mask0_4_991)">
<path d="M186.667 189.333V184H13.3333V189.333H186.667ZM186.667 176V170.667H13.3333V176H186.667ZM186.667 162.667V157.333H13.3333V162.667H186.667Z" fill="#6E5C5A"/>
</g>
</g>
<defs>
<linearGradient id="paint0_linear_4_991" x1="103.252" y1="32.698" x2="103.252" y2="155.856" gradientUnits="userSpaceOnUse">
<stop stop-color="#E6864E"/>
<stop offset="1" stop-color="#EB965E"/>
</linearGradient>
<linearGradient id="paint1_linear_4_991" x1="100" y1="135.333" x2="100" y2="202.872" gradientUnits="userSpaceOnUse">
<stop stop-color="#1D0024"/>
<stop offset="1" stop-color="#100014"/>
</linearGradient>
<linearGradient id="paint2_linear_4_991" x1="100" y1="135.333" x2="100" y2="202.872" gradientUnits="userSpaceOnUse">
<stop stop-color="#1D0024"/>
<stop offset="1" stop-color="#100014"/>
</linearGradient>
<clipPath id="clip0_4_991">
<rect width="200" height="200" rx="100" transform="matrix(-1 0 0 1 200 0)" fill="white"/>
</clipPath>
</defs>
</svg>
